<svg id="Layer_1" data-name="Layer 1" xmlns="http://www.w3.org/2000/svg" viewBox="0 0 267.35 174.64"><defs><style>.cls-1{fill:#ef4136;}.cls-2{fill:#fff;}</style></defs><title>Dream Records Logo (Dark)</title><path d="M206.63,88.71a37.12,37.12,0,0,0,16.15-22.45,53.66,53.66,0,0,0,1.43-15.92,49.92,49.92,0,0,0-1.92-11.71,41.19,41.19,0,0,0-10.46-17.8,36.79,36.79,0,0,0-19-10.06,111.06,111.06,0,0,0-21.58-2.22c-12.72-.14-25.44-.07-38.17-.09-.27,0-.54,0-.77.07V163.22c1.18.22,28.76.16,29.46-.06V97.71c.66,0,1.2,0,1.72,0a1.19,1.19,0,0,1,1.31.79q10.6,19.88,21.23,39.74H218.2L194.9,94.48c.43-.17.77-.32,1.12-.45A54,54,0,0,0,206.63,88.71ZM195.16,58a11.9,11.9,0,0,1-7.83,8.86,35.12,35.12,0,0,1-9.23,1.86c-5.28.45-10.57.24-15.86.28a4.66,4.66,0,0,1-.49,0V37.14c.36,0,.66,0,1,0,4.09,0,8.19,0,12.28.11a43.46,43.46,0,0,1,9.64,1.11,14.59,14.59,0,0,1,11,13.52A21.85,21.85,0,0,1,195.16,58Z"/><path class="cls-1" d="M231.5,163.19a7.35,7.35,0,0,1-.79.09q-15.26,0-30.52.05c-.79,0-1-.43-1.3-1q-5.47-10.29-11-20.57l-1.9-3.56H218.2Z"/><path d="M123.55,101.68q0-32.34-.1-64.69l-28-2c0,1.58,0,3.16,0,4.74V63.25c0,.26,0,.52-.07.92-.36-.33-.59-.54-.81-.76A51.28,51.28,0,0,0,80,53.27a48.37,48.37,0,0,0-25.84-3.83,45.32,45.32,0,0,0-18.77,6.2A54.71,54.71,0,0,0,11.25,85.78a69.42,69.42,0,0,0-3.32,24.28,65.23,65.23,0,0,0,2.26,15.66,56.52,56.52,0,0,0,15.53,25.92A51.49,51.49,0,0,0,43.4,163.15,49.73,49.73,0,0,0,66.61,166a43.48,43.48,0,0,0,15.82-4.74,57.68,57.68,0,0,0,12.22-8.82c.22-.2.45-.39.85-.73v11.7h28.09v-1Q123.57,132,123.55,101.68Zm-30,21.68c-4.23,8.8-11,14.67-20.66,16.65-9,1.83-17.37.42-24.73-5.34a31,31,0,0,1-11.1-16.88A41.09,41.09,0,0,1,36,103.65,32.1,32.1,0,0,1,40.1,90,29,29,0,0,1,56.47,76.39,32,32,0,0,1,71,75.31,28.44,28.44,0,0,1,86.75,82.7a30.27,30.27,0,0,1,9.32,17.09,42,42,0,0,1,.7,7.28C96.74,113.05,96,118.39,93.57,123.36Z"/><path class="cls-1" d="M123.45,37l-28-2q0-12.73,0-25.47v-1c.74-.24,26.66-.3,27.92-.07V9.63q0,12.14,0,24.26C123.44,34.92,123.44,36,123.45,37Z"/><path d="M233.43,150.25a13,13,0,1,1,12.91,13.06A13,13,0,0,1,233.43,150.25Zm2.61,0a10.41,10.41,0,1,0,10.42-10.35A10.41,10.41,0,0,0,236,150.25Z"/><path d="M248.81,150.43a4.86,4.86,0,0,1,2.33,2.59c.48.95,1,1.91,1.42,2.87.12.25.21.51.37.88h-3.29c-.37,0-.47-.26-.6-.52-.41-.85-.83-1.7-1.24-2.54a7.06,7.06,0,0,0-.35-.67c-.73-1.27-1.41-1.56-3.21-1.32v5h-3.42V143.27a7.16,7.16,0,0,1,.76-.07l6.13.11.38.05c3,.52,3.42,2.53,3.06,4.59a2.9,2.9,0,0,1-1.52,2.05C249.39,150.14,249.14,150.26,248.81,150.43Zm-4.56-1.27a17.79,17.79,0,0,0,2.32,0c.81-.1,1.18-.64,1.22-1.53s-.25-1.53-1-1.73a6.06,6.06,0,0,0-2.58-.08Z"/><path class="cls-2" d="M244.25,149.16V145.8a6.06,6.06,0,0,1,2.58.08c.71.2,1,.81,1,1.73s-.41,1.43-1.22,1.53A17.79,17.79,0,0,1,244.25,149.16Z"/></svg>